<svg xmlns="http://www.w3.org/2000/svg" xmlns:xlink="http://www.w3.org/1999/xlink" contentStyleType="text/css" data-diagram-type="CLASS" height="647px" preserveAspectRatio="none" style="width:850px;height:647px;background:#F8F8F8;" version="1.1" viewBox="0 0 850 647" width="850px" zoomAndPan="magnify"><?plantuml 1.2026.6?><defs/><g><rect fill="#F8F8F8" height="647" style="stroke:none;stroke-width:1;" width="850" x="0" y="0"/><g class="title" data-source-line="12"><text fill="#000000" font-family="'Segoe UI'" font-size="22" font-weight="700" lengthAdjust="spacing" textLength="435.9314" x="206.5254" y="38.5181">Beatrice &#8212; Entity-Relationship Diagram</text></g><!--class Graph--><g class="entity" data-qualified-name="Graph" data-source-line="14" id="ent0001"><rect fill="#FFFFFF" height="114.5301" rx="2.5" ry="2.5" style="stroke:#000000;stroke-width:1;" width="144.1591" x="433" y="62.9641"/><ellipse cx="465.5408" cy="85.6701" fill="#FFFFFF" rx="9" ry="9" style="stroke:#000000;stroke-width:1;"/><path d="M468.0096,90.1701 L462.1033,90.1701 L462.1033,80.6857 L468.0096,80.6857 L468.0096,82.342 L463.9783,82.342 L463.9783,84.3889 L467.6346,84.3889 L467.6346,86.0451 L463.9783,86.0451 L463.9783,88.5139 L468.0096,88.5139 L468.0096,90.1701 Z " fill="#000000"/><text fill="#000000" font-family="'Segoe UI'" font-size="13" lengthAdjust="spacing" textLength="38.155" x="499.1732" y="81.8611">Graph</text><text fill="#000000" font-family="'Segoe UI'" font-size="13" lengthAdjust="spacing" textLength="72.7351" x="481.8832" y="99.5671">(&#1092;&#1072;&#1081;&#1083; .json)</text><line style="stroke:#000000;stroke-width:1;" x1="434" x2="576.1591" y1="108.3761" y2="108.3761"/><g data-visibility-modifier="IE_MANDATORY"><ellipse cx="444" cy="122.7291" fill="#FFFFFF" rx="3" ry="3" style="stroke:#000000;stroke-width:1;"/></g><text fill="#000000" font-family="'Segoe UI'" font-size="13" lengthAdjust="spacing" textLength="120.1591" x="451" y="126.2731">directed : bool &#171;PK&#187;</text><line style="stroke:#000000;stroke-width:1;" x1="434" x2="576.1591" y1="134.0822" y2="134.0822"/><text fill="#000000" font-family="'Segoe UI'" font-size="13" lengthAdjust="spacing" textLength="105.5991" x="439" y="151.9792">multigraph : bool</text><text fill="#000000" font-family="'Segoe UI'" font-size="13" lengthAdjust="spacing" textLength="109.2391" x="439" y="169.6852">graph[meta] : dict</text></g><!--class Node--><g class="entity" data-qualified-name="Node" data-source-line="21" id="ent0002"><rect fill="#FFFFFF" height="185.3541" rx="2.5" ry="2.5" style="stroke:#000000;stroke-width:1;" width="113.7911" x="87" y="237.9641"/><ellipse cx="122.5653" cy="260.6701" fill="#FFFFFF" rx="9" ry="9" style="stroke:#000000;stroke-width:1;"/><path d="M125.034,265.1701 L119.1278,265.1701 L119.1278,255.6857 L125.034,255.6857 L125.034,257.342 L121.0028,257.342 L121.0028,259.3889 L124.659,259.3889 L124.659,261.0451 L121.0028,261.0451 L121.0028,263.5139 L125.034,263.5139 L125.034,265.1701 Z " fill="#000000"/><text fill="#000000" font-family="'Segoe UI'" font-size="13" lengthAdjust="spacing" textLength="33.072" x="140.8668" y="256.8611">Node</text><text fill="#000000" font-family="'Segoe UI'" font-size="13" lengthAdjust="spacing" textLength="35.646" x="139.5798" y="274.5671">(&#1091;&#1079;&#1077;&#1083;)</text><line style="stroke:#000000;stroke-width:1;" x1="88" x2="199.7911" y1="283.3761" y2="283.3761"/><g data-visibility-modifier="IE_MANDATORY"><ellipse cx="98" cy="297.7291" fill="#FFFFFF" rx="3" ry="3" style="stroke:#000000;stroke-width:1;"/></g><text fill="#000000" font-family="'Segoe UI'" font-size="13" lengthAdjust="spacing" textLength="89.7911" x="105" y="301.2731">id : string &#171;PK&#187;</text><line style="stroke:#000000;stroke-width:1;" x1="88" x2="199.7911" y1="309.0822" y2="309.0822"/><text fill="#000000" font-family="'Segoe UI'" font-size="13" lengthAdjust="spacing" textLength="75.2441" x="93" y="326.9792">label : string</text><text fill="#000000" font-family="'Segoe UI'" font-size="13" lengthAdjust="spacing" textLength="72.5661" x="93" y="344.6852">type : string</text><text fill="#000000" font-family="'Segoe UI'" font-size="13" lengthAdjust="spacing" textLength="73.7101" x="93" y="362.3912">desc : string</text><text fill="#000000" font-family="'Segoe UI'" font-size="13" lengthAdjust="spacing" textLength="76.6091" x="93" y="380.0972">color : string</text><text fill="#000000" font-family="'Segoe UI'" font-size="13" lengthAdjust="spacing" textLength="82.1861" x="93" y="397.8032">size : number</text><text fill="#000000" font-family="'Segoe UI'" font-size="13" lengthAdjust="spacing" textLength="92.2091" x="93" y="415.5092">attributes : dict</text></g><!--class Edge--><g class="entity" data-qualified-name="Edge" data-source-line="32" id="ent0003"><rect fill="#FFFFFF" height="149.9421" rx="2.5" ry="2.5" style="stroke:#000000;stroke-width:1;" width="142.3911" x="73" y="482.9641"/><ellipse cx="117.0585" cy="505.6701" fill="#FFFFFF" rx="9" ry="9" style="stroke:#000000;stroke-width:1;"/><path d="M119.5273,510.1701 L113.621,510.1701 L113.621,500.6857 L119.5273,500.6857 L119.5273,502.342 L115.496,502.342 L115.496,504.3889 L119.1523,504.3889 L119.1523,506.0451 L115.496,506.0451 L115.496,508.5139 L119.5273,508.5139 L119.5273,510.1701 Z " fill="#000000"/><text fill="#000000" font-family="'Segoe UI'" font-size="13" lengthAdjust="spacing" textLength="30.55" x="142.6705" y="501.8611">Edge</text><text fill="#000000" font-family="'Segoe UI'" font-size="13" lengthAdjust="spacing" textLength="46.774" x="134.5585" y="519.5671">(&#1088;&#1077;&#1073;&#1088;&#1086;)</text><line style="stroke:#000000;stroke-width:1;" x1="74" x2="214.3911" y1="528.3761" y2="528.3761"/><g data-visibility-modifier="IE_MANDATORY"><ellipse cx="84" cy="542.7291" fill="#FFFFFF" rx="3" ry="3" style="stroke:#000000;stroke-width:1;"/></g><text fill="#000000" font-family="'Segoe UI'" font-size="13" lengthAdjust="spacing" textLength="118.3911" x="91" y="546.2731">source : string &#171;FK&#187;</text><g data-visibility-modifier="IE_MANDATORY"><ellipse cx="84" cy="560.4352" fill="#FFFFFF" rx="3" ry="3" style="stroke:#000000;stroke-width:1;"/></g><text fill="#000000" font-family="'Segoe UI'" font-size="13" lengthAdjust="spacing" textLength="114.6991" x="91" y="563.9792">target : string &#171;FK&#187;</text><line style="stroke:#000000;stroke-width:1;" x1="74" x2="214.3911" y1="571.7882" y2="571.7882"/><text fill="#000000" font-family="'Segoe UI'" font-size="13" lengthAdjust="spacing" textLength="93.2101" x="79" y="589.6852">relation : string</text><text fill="#000000" font-family="'Segoe UI'" font-size="13" lengthAdjust="spacing" textLength="100.7891" x="79" y="607.3912">weight : number</text><text fill="#000000" font-family="'Segoe UI'" font-size="13" lengthAdjust="spacing" textLength="92.2091" x="79" y="625.0972">attributes : dict</text></g><!--class Meta--><g class="entity" data-qualified-name="Meta" data-source-line="41" id="ent0004"><rect fill="#FFFFFF" height="149.9421" rx="2.5" ry="2.5" style="stroke:#000000;stroke-width:1;" width="137.3691" x="558.5" y="255.4641"/><ellipse cx="571.5" cy="278.1701" fill="#FFFFFF" rx="9" ry="9" style="stroke:#000000;stroke-width:1;"/><path d="M573.9688,282.6701 L568.0625,282.6701 L568.0625,273.1857 L573.9688,273.1857 L573.9688,274.842 L569.9375,274.842 L569.9375,276.8889 L573.5938,276.8889 L573.5938,278.5451 L569.9375,278.5451 L569.9375,281.0139 L573.9688,281.0139 L573.9688,282.6701 Z " fill="#000000"/><text fill="#000000" font-family="'Segoe UI'" font-size="13" lengthAdjust="spacing" textLength="100.2821" x="588.0435" y="274.3611">Graph metadata</text><text fill="#000000" font-family="'Segoe UI'" font-size="13" lengthAdjust="spacing" textLength="109.3691" x="583.5" y="292.0671">(&#1072;&#1090;&#1088;&#1080;&#1073;&#1091;&#1090;&#1099; &#1075;&#1088;&#1072;&#1092;&#1072;)</text><line style="stroke:#000000;stroke-width:1;" x1="559.5" x2="694.8691" y1="300.8761" y2="300.8761"/><text fill="#000000" font-family="'Segoe UI'" font-size="13" lengthAdjust="spacing" textLength="80.7301" x="564.5" y="318.7731">name : string</text><text fill="#000000" font-family="'Segoe UI'" font-size="13" lengthAdjust="spacing" textLength="114.3741" x="564.5" y="336.4792">description : string</text><text fill="#000000" font-family="'Segoe UI'" font-size="13" lengthAdjust="spacing" textLength="90.7011" x="564.5" y="354.1852">version : string</text><text fill="#000000" font-family="'Segoe UI'" font-size="13" lengthAdjust="spacing" textLength="109.9281" x="564.5" y="371.8912">created_at : string</text><text fill="#000000" font-family="'Segoe UI'" font-size="13" lengthAdjust="spacing" textLength="77.7401" x="564.5" y="389.5972">custom : dict</text><line style="stroke:#000000;stroke-width:1;" x1="559.5" x2="694.8691" y1="397.4062" y2="397.4062"/></g><g class="entity" data-qualified-name="GMN10" data-source-line="56" id="ent0011"><path d="M236,289.9641 L236,326.9641 L201.04,330.9641 L236,334.9641 L236,370.7882 A0,0 0 0 0 236,370.7882 L452.1692,370.7882 A0,0 0 0 0 452.1692,370.7882 L452.1692,299.9641 L442.1692,289.9641 L236,289.9641 A0,0 0 0 0 236,289.9641" fill="#FFFFFF" style="stroke:#000000;stroke-width:1;"/><path d="M442.1692,289.9641 L442.1692,299.9641 L452.1692,299.9641 L442.1692,289.9641" fill="#FFFFFF" style="stroke:#000000;stroke-width:1;"/><text fill="#000000" font-family="'Segoe UI'" font-size="13" font-weight="700" lengthAdjust="spacing" textLength="96.2001" x="242" y="308.8611">&#1054;&#1075;&#1088;&#1072;&#1085;&#1080;&#1095;&#1077;&#1085;&#1080;&#1103;:</text><text fill="#000000" font-family="'Segoe UI'" font-size="13" lengthAdjust="spacing" textLength="184.1581" x="242" y="326.5671">- id &#1091;&#1085;&#1080;&#1082;&#1072;&#1083;&#1077;&#1085; &#1074; &#1088;&#1072;&#1084;&#1082;&#1072;&#1093; &#1075;&#1088;&#1072;&#1092;&#1072;</text><text fill="#000000" font-family="'Segoe UI'" font-size="13" lengthAdjust="spacing" textLength="167.6742" x="242" y="344.2731">- id &#1085;&#1077; &#1084;&#1086;&#1078;&#1077;&#1090; &#1073;&#1099;&#1090;&#1100; &#1087;&#1091;&#1089;&#1090;&#1099;&#1084;</text><text fill="#000000" font-family="'Segoe UI'" font-size="13" lengthAdjust="spacing" textLength="195.1692" x="242" y="361.9792">- &#1051;&#1102;&#1073;&#1099;&#1077; &#1076;&#1086;&#1087;. &#1087;&#1086;&#1083;&#1103; &#1088;&#1072;&#1079;&#1088;&#1077;&#1096;&#1077;&#1085;&#1099;</text></g><g class="entity" data-qualified-name="GMN13" data-source-line="63" id="ent0014"><path d="M250,499.9641 L250,554.9641 L215.29,558.9641 L250,562.9641 L250,616.2002 A0,0 0 0 0 250,616.2002 L468.1192,616.2002 A0,0 0 0 0 468.1192,616.2002 L468.1192,509.9641 L458.1192,499.9641 L250,499.9641 A0,0 0 0 0 250,499.9641" fill="#FFFFFF" style="stroke:#000000;stroke-width:1;"/><path d="M458.1192,499.9641 L458.1192,509.9641 L468.1192,509.9641 L458.1192,499.9641" fill="#FFFFFF" style="stroke:#000000;stroke-width:1;"/><text fill="#000000" font-family="'Segoe UI'" font-size="13" font-weight="700" lengthAdjust="spacing" textLength="96.2001" x="256" y="518.8611">&#1054;&#1075;&#1088;&#1072;&#1085;&#1080;&#1095;&#1077;&#1085;&#1080;&#1103;:</text><text fill="#000000" font-family="'Segoe UI'" font-size="13" lengthAdjust="spacing" textLength="155.5842" x="256" y="536.5671">- source &#1080; target &#1076;&#1086;&#1083;&#1078;&#1085;&#1099;</text><text fill="#000000" font-family="'Segoe UI'" font-size="13" lengthAdjust="spacing" textLength="140.1531" x="262.76" y="554.2731">&#1089;&#1091;&#1097;&#1077;&#1089;&#1090;&#1074;&#1086;&#1074;&#1072;&#1090;&#1100; &#1074; nodes</text><text fill="#000000" font-family="'Segoe UI'" font-size="13" lengthAdjust="spacing" textLength="197.1192" x="256" y="571.9792">- &#1044;&#1091;&#1073;&#1083;&#1080;&#1082;&#1072;&#1090;&#1099; &#1088;&#1105;&#1073;&#1077;&#1088; &#1079;&#1072;&#1087;&#1088;&#1077;&#1097;&#1077;&#1085;&#1099;</text><text fill="#000000" font-family="'Segoe UI'" font-size="13" lengthAdjust="spacing" textLength="111.6181" x="262.76" y="589.6852">(multigraph: false)</text><text fill="#000000" font-family="'Segoe UI'" font-size="13" lengthAdjust="spacing" textLength="196.5862" x="256" y="607.3912">- &#1053;&#1072;&#1087;&#1088;&#1072;&#1074;&#1083;&#1077;&#1085;&#1080;&#1077;: source &#8594; target</text></g><g class="entity" data-qualified-name="GMN16" data-source-line="72" id="ent0017"><path d="M612,70.9641 L612,116.9641 L577.01,120.9641 L612,124.9641 L612,169.4942 A0,0 0 0 0 612,169.4942 L835.9822,169.4942 A0,0 0 0 0 835.9822,169.4942 L835.9822,80.9641 L825.9822,70.9641 L612,70.9641 A0,0 0 0 0 612,70.9641" fill="#FFFFFF" style="stroke:#000000;stroke-width:1;"/><path d="M825.9822,70.9641 L825.9822,80.9641 L835.9822,80.9641 L825.9822,70.9641" fill="#FFFFFF" style="stroke:#000000;stroke-width:1;"/><text fill="#000000" font-family="'Segoe UI'" font-size="13" font-weight="700" lengthAdjust="spacing" textLength="126.1131" x="618" y="89.8611">&#1060;&#1086;&#1088;&#1084;&#1072;&#1090; &#1093;&#1088;&#1072;&#1085;&#1077;&#1085;&#1080;&#1103;:</text><text fill="#000000" font-family="'Segoe UI'" font-size="13" lengthAdjust="spacing" textLength="202.9822" x="618" y="107.5671">JSON node-link (NetworkX native)</text><text fill="#000000" font-family="'Segoe UI'" font-size="13" lengthAdjust="spacing" textLength="125.4891" x="618" y="125.2731">- nx.node_link_data()</text><text fill="#000000" font-family="'Segoe UI'" font-size="13" lengthAdjust="spacing" textLength="134.9011" x="618" y="142.9792">- nx.node_link_graph()</text><text fill="#000000" font-family="'Segoe UI'" font-size="13" lengthAdjust="spacing" textLength="136.0451" x="618" y="160.6852">- &#1042;&#1089;&#1077;&#1075;&#1076;&#1072; directed: true</text></g><!--link Graph to Node--><g class="link" data-entity-1="ent0001" data-entity-2="ent0002" data-link-type="crowfoot" data-source-line="49" id="lnk5"><path codeLine="49" d="M442.5,186.1641 C442.5,219.5241 442.5,246.9641 442.5,246.9641 C442.5,246.9641 305.88,246.9641 219.2,246.9641" fill="none" id="Graph-Node" style="stroke:#000000;stroke-width:1;"/><line style="stroke:#000000;stroke-width:1;" x1="438.5" x2="446.5" y1="182.1641" y2="182.1641"/><line style="stroke:#000000;stroke-width:1;" x1="438.5" x2="446.5" y1="185.1641" y2="185.1641"/><line style="stroke:#000000;stroke-width:1;" x1="442.5" x2="442.5" y1="186.1641" y2="178.1641"/><line style="stroke:#000000;stroke-width:1;" x1="209.2" x2="201.2" y1="246.9641" y2="252.9641"/><line style="stroke:#000000;stroke-width:1;" x1="209.2" x2="201.2" y1="246.9641" y2="240.9641"/><line style="stroke:#000000;stroke-width:1;" x1="209.2" x2="201.2" y1="246.9641" y2="246.9641"/><ellipse cx="215.2" cy="246.9641" fill="none" rx="4" ry="4" style="stroke:#000000;stroke-width:1;"/><text fill="#000000" font-family="'Segoe UI'" font-size="13" lengthAdjust="spacing" textLength="61.2821" x="294.25" y="242.8611">&#1089;&#1086;&#1076;&#1077;&#1088;&#1078;&#1080;&#1090;</text></g><!--link Graph to Edge--><g class="link" data-entity-1="ent0001" data-entity-2="ent0003" data-link-type="crowfoot" data-source-line="50" id="lnk6"><path codeLine="50" d="M460,186.1041 C460,290.4541 460,491.9641 460,491.9641 C460,491.9641 326.51,491.9641 233.31,491.9641" fill="none" id="Graph-Edge" style="stroke:#000000;stroke-width:1;"/><line style="stroke:#000000;stroke-width:1;" x1="456" x2="464" y1="182.1041" y2="182.1041"/><line style="stroke:#000000;stroke-width:1;" x1="456" x2="464" y1="185.1041" y2="185.1041"/><line style="stroke:#000000;stroke-width:1;" x1="460" x2="460" y1="186.1041" y2="178.1041"/><line style="stroke:#000000;stroke-width:1;" x1="223.31" x2="215.31" y1="491.9641" y2="497.9641"/><line style="stroke:#000000;stroke-width:1;" x1="223.31" x2="215.31" y1="491.9641" y2="485.9641"/><line style="stroke:#000000;stroke-width:1;" x1="223.31" x2="215.31" y1="491.9641" y2="491.9641"/><ellipse cx="229.31" cy="491.9641" fill="none" rx="4" ry="4" style="stroke:#000000;stroke-width:1;"/><text fill="#000000" font-family="'Segoe UI'" font-size="13" lengthAdjust="spacing" textLength="61.2821" x="398" y="453.2711">&#1089;&#1086;&#1076;&#1077;&#1088;&#1078;&#1080;&#1090;</text></g><!--link Node to Edge--><g class="link" data-entity-1="ent0002" data-entity-2="ent0003" data-link-type="crowfoot" data-source-line="51" id="lnk7"><path codeLine="51" d="M125,430.9941 C125,450.9241 125,445.7541 125,464.9241" fill="none" id="Node-Edge" style="stroke:#000000;stroke-width:1;"/><line style="stroke:#000000;stroke-width:1;" x1="121" x2="129" y1="426.9941" y2="426.9941"/><line style="stroke:#000000;stroke-width:1;" x1="121" x2="129" y1="429.9941" y2="429.9941"/><line style="stroke:#000000;stroke-width:1;" x1="125" x2="125" y1="430.9941" y2="422.9941"/><line style="stroke:#000000;stroke-width:1;" x1="125" x2="131" y1="474.9241" y2="482.9241"/><line style="stroke:#000000;stroke-width:1;" x1="125" x2="119" y1="474.9241" y2="482.9241"/><line style="stroke:#000000;stroke-width:1;" x1="125" x2="125" y1="474.9241" y2="482.9241"/><ellipse cx="125" cy="468.9241" fill="none" rx="4" ry="4" style="stroke:#000000;stroke-width:1;"/><text fill="#000000" font-family="'Segoe UI'" font-size="13" lengthAdjust="spacing" textLength="112.3851" x="12" y="448.8511">&#1080;&#1089;&#1090;&#1086;&#1095;&#1085;&#1080;&#1082; (source)</text></g><!--link Node to Edge--><g class="link" data-entity-1="ent0002" data-entity-2="ent0003" data-link-type="crowfoot" data-source-line="52" id="lnk8"><path codeLine="52" d="M163,430.9941 C163,450.9241 163,445.7541 163,464.9241" fill="none" id="Node-Edge-1" style="stroke:#000000;stroke-width:1;"/><line style="stroke:#000000;stroke-width:1;" x1="159" x2="167" y1="426.9941" y2="426.9941"/><line style="stroke:#000000;stroke-width:1;" x1="159" x2="167" y1="429.9941" y2="429.9941"/><line style="stroke:#000000;stroke-width:1;" x1="163" x2="163" y1="430.9941" y2="422.9941"/><line style="stroke:#000000;stroke-width:1;" x1="163" x2="169" y1="474.9241" y2="482.9241"/><line style="stroke:#000000;stroke-width:1;" x1="163" x2="157" y1="474.9241" y2="482.9241"/><line style="stroke:#000000;stroke-width:1;" x1="163" x2="163" y1="474.9241" y2="482.9241"/><ellipse cx="163" cy="468.9241" fill="none" rx="4" ry="4" style="stroke:#000000;stroke-width:1;"/><text fill="#000000" font-family="'Segoe UI'" font-size="13" lengthAdjust="spacing" textLength="79.3391" x="83" y="467.8511">&#1094;&#1077;&#1083;&#1100; (target)</text></g><!--link Graph to Meta--><g class="link" data-entity-1="ent0001" data-entity-2="ent0004" data-link-type="association" data-source-line="53" id="lnk9"><path codeLine="53" d="M567.75,186.1241 C567.75,209.9241 567.75,221.8241 567.75,247.2041" fill="none" id="Graph-Meta" style="stroke:#000000;stroke-width:1;"/><line style="stroke:#000000;stroke-width:1;" x1="563.75" x2="571.75" y1="182.1241" y2="182.1241"/><line style="stroke:#000000;stroke-width:1;" x1="563.75" x2="571.75" y1="185.1241" y2="185.1241"/><line style="stroke:#000000;stroke-width:1;" x1="567.75" x2="567.75" y1="186.1241" y2="178.1241"/><line style="stroke:#000000;stroke-width:1;" x1="571.75" x2="563.75" y1="251.2041" y2="251.2041"/><line style="stroke:#000000;stroke-width:1;" x1="571.75" x2="563.75" y1="248.2041" y2="248.2041"/><line style="stroke:#000000;stroke-width:1;" x1="567.75" x2="567.75" y1="247.2041" y2="255.2041"/><text fill="#000000" font-family="'Segoe UI'" font-size="13" lengthAdjust="spacing" textLength="61.529" x="505.75" y="212.5611">&#1074;&#1082;&#1083;&#1102;&#1095;&#1072;&#1077;&#1090;</text></g><?plantuml-src ZLNTJXD15BxlKnphJTkaHCA5f24aeiMe4Ot4n4GDcNQdxSfsfvcTWWWc_0XA8109TqQlV83oKq6AvHLcNe4dyPoP1RTDJMYJjdFEj-VxpldERc-f6gzpQ0JC3rFHh1ysc6Hr2FoGguK61o5LJIGI9LQUhKhH3Btx8X0IRbT6wPr0UBp2ce6Q5A6QObWwFSshWiFBH-d1e6d_0uVXaKIIXyfN2x2O0fZefokEJjwPB596I8_BE3fyx-v8SHIZLB0tzZ6Lmce1XmdEbFJB72wNzw5eAV8lUC2KByAevZVWWS-gI9zAnVpfXv8rQc_2ZFcaM_gtxi3GkqY4sJIm26pEIio1vqjULjo30fI4261ixFcJyN5CvVFuKSS-_Qg5kpp6xF5rdIls5eEUNrQayuftIdYSQDVqYMxhZYEaOCpd4rE4pOJLFgw0bNXmdSI0zJ1nzdXKJfxBTbQ9G4Hk521irajSufafp9IQYaS3X1QzgXMwZ38FyBFhf58ubXg9fYppfDn99pS7YiagLmDIjXCPEvFKDi_zQatTM9spY8RiCSLGfswPLLHvYbhNyDSMw2CyjiXU9_mfOgtma1QtRspIR_GBckCowWkL9QuPzsQOweas8oNg2OrEsz9IFYyMdRK5I9iLtTN7kesYVkbJivhkXTcn3eJP0dqepAoOLTqrd_KVRFaCCiwBx62usQ1LCzkGSRvaa-HBIsuqLFPGdo5k1yksK0AIfqAXE4XhZQZOPiZVdFxXnalqY6xRxzr2BaSMqmxZVbjb2EbG6lGXs0lEAMRM4_PSNO8Nj07pNUmSoG6Tt48djq5VeAKhPAe-js3zpUnGbl37YByOGWn-Tyok8pcXhJLVYDXiuSvuG7tqTqFZkK4tyPhhqwkjjfmTL4d50LyeRiri8YEPSeZ9GxkDszHqY2EBdEfz7Ce1NcZ7OdVKB9kl64At0Hy7BMoKT6_6kgbqvjyJfW0L5aGywufzZ-4j9EiuoRfTk19xkR4Ng_rlztO3NFi_SPEMSV8e2inwF8cUAJoUVZPbMydZdySiPAQucXTozXNUJCgVYpM5xuS8CaEG6RejCmFYjfKueVTmtTlw20VQkdxG5a399h-M_HS0?></g></svg>